<?xml version="1.0" encoding="utf-8"?>
<!-- Generator: Adobe Illustrator 18.1.1, SVG Export Plug-In . SVG Version: 6.00 Build 0)  -->
<svg version="1.1" id="Layer_1" xmlns="http://www.w3.org/2000/svg" xmlns:xlink="http://www.w3.org/1999/xlink" x="0px" y="0px"
	 width="379.68px" height="274.97px" viewBox="0 0 379.68 274.97" enable-background="new 0 0 379.68 274.97" xml:space="preserve">
<g>
	<g>
		<path fill="#FFFFFF" d="M318.33,39.79c2.21,1.06,1.4,5.76,1.19,7.64c-0.5,4.41-1.62,8.76-2.81,13.02
			c-1.29,4.6-2.78,9.15-4.41,13.64c-0.81,2.22-1.55,4.54-2.75,6.58c-1.71,2.89-4.42,4.38-7.64,5.06c-6.01,1.26-12.77,0.35-18.8-0.36
			c-6.43-0.76-12.8-2.05-19.03-3.8c-6.52-1.83-12.91-4.18-19.05-7.05c-5.01-2.34-10.43-4.89-14.14-9.13
			c-5.25-6.01-3.75-14.43-2.74-21.69c1.09-7.82,2.83-15.52,5.13-23.07c-0.29,0.29-0.58,0.58-0.87,0.87
			c3.41-1.31,7.57-1.25,11.14-1.23c13.04,0.07,26.06,3.05,38.53,6.63c12.44,3.58,24.6,8.07,36.55,13.01
			c1.49,0.61,2.13-1.8,0.66-2.41c-19.92-8.23-40.71-15.65-62.16-18.65c-7.78-1.09-16.33-1.99-24.09-0.14
			c-0.4,0.09-0.87,0.16-1.25,0.35c-0.97,0.48-1.03,1.22-1.34,2.25c-1.04,3.48-1.94,6.99-2.72,10.54
			c-1.49,6.79-2.66,13.79-3.02,20.74c-0.31,5.98,1.06,11.34,5.41,15.62c4.24,4.17,9.91,6.8,15.26,9.21
			c6.11,2.75,12.42,5.03,18.88,6.79c6.46,1.76,13.06,3.01,19.72,3.75c6.01,0.67,12.59,1.43,18.57,0.17
			c6.55-1.38,9.34-5.87,11.54-11.78c1.95-5.22,3.7-10.53,5.19-15.9c1.35-4.89,2.64-9.96,2.89-15.05c0.13-2.56,0.13-6.47-2.6-7.78
			C318.15,36.94,316.88,39.1,318.33,39.79z"/>
		<path fill="#FFFFFF" d="M230.85,22.59c6.4,6.91,13,13.64,19.8,20.15c5.68,5.43,11.61,11.96,19.27,14.51
			c8.39,2.79,17.43-1.05,25.37-3.68c8.82-2.92,17.51-6.18,26.09-9.75c1.46-0.61,0.82-3.03-0.66-2.41c-8,3.33-16.11,6.39-24.32,9.16
			c-7.9,2.66-17.44,7.06-25.8,4.27c-7.72-2.58-13.83-9.68-19.53-15.17c-6.33-6.1-12.47-12.39-18.45-18.84
			C231.53,19.64,229.76,21.41,230.85,22.59L230.85,22.59z"/>
		<path fill="#FFFFFF" d="M255.11,47.23c-9.17,4.41-16.89,11.23-22.45,19.74c-0.88,1.35,1.28,2.6,2.16,1.26
			c5.34-8.17,12.77-14.62,21.56-18.84C257.82,48.69,256.56,46.53,255.11,47.23L255.11,47.23z"/>
		<path fill="#FFFFFF" d="M311.69,80.37c-3.6-10.8-10.09-20.38-18.84-27.67c-1.23-1.02-3.01,0.74-1.77,1.77
			c8.43,7.02,14.73,16.16,18.2,26.57C309.79,82.56,312.2,81.91,311.69,80.37L311.69,80.37z"/>
		<path fill="#FFFFFF" d="M82.86,96.89c-5.29,10.37-9.79,21.13-13.37,32.21c-1.28,3.96-4.37,9.93-1.63,13.82
			c1.17,1.67,3.12,2.87,4.76,4.04c2.46,1.76,5,3.38,7.59,4.93c10.18,6.08,20.86,11.39,31.39,16.8
			c10.84,5.57,21.75,11.01,32.72,16.31c5.56,2.69,11.14,5.34,16.73,7.96c3.94,1.84,8.97,5.31,13.5,3.72
			c4.03-1.42,6.44-5.71,8.52-9.15c2.8-4.64,5.19-9.52,7.17-14.56c1.99-5.08,3.54-10.33,4.62-15.68c0.84-4.16,1.42-8.11-2.5-10.81
			c-2.12-1.46-4.62-2.44-6.92-3.58c-2.97-1.46-5.94-2.93-8.91-4.39c-5.64-2.78-11.28-5.56-16.92-8.34
			c-24.94-12.29-49.88-24.58-74.82-36.87c-1.44-0.71-2.71,1.45-1.26,2.16c20.19,9.95,40.38,19.9,60.57,29.84
			c10.09,4.97,20.19,9.95,30.28,14.92c4.96,2.44,9.98,4.78,14.88,7.34c2.42,1.26,4.03,2.65,3.79,5.63c-0.22,2.73-1,5.52-1.68,8.17
			c-2.53,9.87-6.68,19.4-12.34,27.89c-1.19,1.78-2.56,3.68-4.49,4.72c-2.93,1.57-6-0.28-8.68-1.53c-5.01-2.33-10.01-4.69-14.99-7.07
			c-19.78-9.46-39.36-19.36-58.7-29.69c-5.06-2.71-10.11-5.45-14.92-8.6c-2.32-1.52-5.23-3.11-7.04-5.24
			c-2.17-2.56,0.11-7.07,0.99-9.87c3.63-11.66,8.27-22.97,13.82-33.84C85.75,96.72,83.6,95.45,82.86,96.89L82.86,96.89z"/>
		<path fill="#FFFFFF" d="M82.49,95.99c9.3,15.88,19.96,30.94,31.87,44.97c2.81,3.31,5.59,6.8,8.99,9.52
			c3.16,2.53,6.83,3.99,10.8,4.7c9.01,1.62,18.62,1.37,27.71,0.79c10.93-0.69,21.77-2.49,32.35-5.31c1.55-0.41,0.89-2.83-0.66-2.41
			c-17.76,4.73-36.48,6.67-54.83,5.01c-4.4-0.4-8.84-1.27-12.56-3.8c-3.45-2.35-6.16-5.77-8.86-8.91
			c-5.74-6.68-11.2-13.61-16.35-20.76c-5.83-8.1-11.26-16.47-16.3-25.08C83.83,93.34,81.67,94.59,82.49,95.99L82.49,95.99z"/>
		<path fill="#FFFFFF" d="M111.23,135.06c-14.55-0.15-29.06,1.33-43.29,4.4c-1.57,0.34-0.91,2.75,0.66,2.41
			c14.01-3.03,28.29-4.46,42.62-4.31C112.84,137.57,112.85,135.07,111.23,135.06L111.23,135.06z"/>
		<path fill="#FFFFFF" d="M175.18,194.42c-2.55-7.14-5.92-13.92-9.6-20.54c-3.49-6.27-6.83-13.02-11.59-18.44
			c-1.06-1.21-2.83,0.56-1.77,1.77c4.6,5.24,7.83,11.87,11.2,17.93c3.58,6.43,6.87,13.01,9.34,19.94
			C173.3,196.59,175.72,195.94,175.18,194.42L175.18,194.42z"/>
		<path fill="#FFFFFF" d="M1.64,36.96c4.52,7.22,9.04,14.45,13.55,21.67c1.67,2.67,3.23,5.69,5.7,7.73
			c2.28,1.88,5.18,2.61,8.09,2.54c6.55-0.15,13.17-3.22,19.06-5.84c6.82-3.03,13.35-6.74,19.45-11.05c2.9-2.05,5.71-4.23,8.42-6.53
			c2.33-1.99,4.67-4.1,5.89-6.98c2.68-6.31-0.39-13.46-3.23-19.15C75.54,13.3,71.5,6.35,66.01,2.18c-6.2-4.7-11.97-0.87-17.56,2.73
			C32.87,14.93,16.9,24.34,0.61,33.14c-0.98,0.53-0.69,1.97,0.3,2.28c7.56,2.39,15.41,3.47,23.3,3.98c4.06,0.26,8.13,0.38,12.2,0.48
			c3.57,0.09,7.31,0.33,10.77-0.73c6.46-2,9.1-8.47,11.12-14.35c2.59-7.56,3.94-15.48,4.16-23.46c0.05-1.61-2.45-1.61-2.5,0
			c-0.21,7.31-1.4,14.52-3.64,21.48c-2.1,6.53-4.74,13.5-12.43,14.45c-3.24,0.4-6.58,0.14-9.83,0.05c-3.6-0.1-7.2-0.23-10.79-0.48
			c-7.36-0.52-14.65-1.6-21.7-3.83c0.1,0.76,0.2,1.52,0.3,2.28c12.64-6.83,25.09-14.02,37.31-21.58c2.71-1.68,5.42-3.38,8.11-5.1
			c3.1-1.98,6.33-4.67,9.87-5.83c7.09-2.33,12.32,6.3,15.54,11.3c3.45,5.37,7.21,11.88,7.59,18.4c0.43,7.31-6.41,11.72-11.62,15.61
			C58.51,55.68,46.7,62.15,34.42,65.51c-3.27,0.89-7.04,1.53-10.23,0.03c-3.5-1.65-5.41-5.89-7.36-9
			C12.49,49.59,8.14,42.64,3.8,35.7C2.95,34.34,0.78,35.59,1.64,36.96L1.64,36.96z"/>
		<path fill="#FFFFFF" d="M35.55,39.01c-3.75,8.49-6.42,17.34-7.94,26.5c-0.26,1.57,2.15,2.25,2.41,0.66
			c1.48-8.93,4.04-17.62,7.69-25.9C38.35,38.82,36.2,37.54,35.55,39.01L35.55,39.01z"/>
		<path fill="#FFFFFF" d="M81.18,31.28c-7.44-3.36-15.25-5.46-23.38-6.29c-1.6-0.16-1.59,2.34,0,2.5c7.65,0.78,15.1,2.78,22.12,5.95
			C81.37,34.09,82.65,31.94,81.18,31.28L81.18,31.28z"/>
		<path fill="#FFFFFF" d="M255.33,129.97c-1.73-5.28-7.16-8.46-12.6-6.68c-5.63,1.84-8.69,9.14-9.29,14.58
			c-0.61,5.54,2.63,11.37,8.77,11.19c5.94-0.17,9.6-5.18,11.52-10.25c-0.82-0.11-1.64-0.22-2.46-0.33c0.52,4,2.42,9.03,7.39,8.38
			c5.29-0.69,6.95-6.32,7.18-10.87c0.5-10.05-4.5-20.8-14.64-23.91c-9.61-2.95-20.34,1.41-25.2,10.17c-5,9-3.78,20.36,2.76,28.24
			c7.92,9.54,22.26,11.72,32.25,4.05c1.26-0.97,0.01-3.14-1.26-2.16c-7.19,5.52-17.2,5.81-24.64,0.58
			c-7.01-4.92-10.75-13.52-9.46-22c1.25-8.24,6.96-15.07,15.22-16.86c8.49-1.83,16.69,2.22,20.34,10.09
			c1.97,4.25,2.65,9.28,1.93,13.91c-0.42,2.68-1.79,6.1-4.97,6.26c-3.16,0.16-4.07-3.42-4.39-5.9c-0.18-1.39-1.93-1.71-2.46-0.33
			c-1.39,3.66-3.82,7.51-7.97,8.28c-5.59,1.04-8.13-4.37-7.31-9.13c0.66-3.82,2.65-9.15,6.24-11.12c4.23-2.31,9.19,0.01,10.64,4.44
			C253.42,132.15,255.83,131.5,255.33,129.97L255.33,129.97z"/>
		<path fill="#FFFFFF" d="M280.06,142.9c2.46,9.58,5.56,18.99,9.33,28.14c2.62,6.36,5.48,15.72,12.82,18.07
			c4.3,1.38,9.26-0.07,13.53-0.88c4.95-0.94,9.87-2.01,14.76-3.21c9.63-2.36,19.13-5.24,28.46-8.6c4.24-1.53,8.59-3.01,12.64-4.99
			c3.23-1.58,6.08-3.84,7.33-7.32c1.38-3.82,0.59-8.06-0.35-11.88c-1.09-4.44-2.28-8.88-3.65-13.24c-1.27-4.06-2.74-8.07-4.57-11.91
			c-1.71-3.58-3.76-7.79-6.74-10.51c-3.2-2.92-7.2-1.55-10.87-0.46c-5.1,1.5-10.2,3.01-15.3,4.51
			c-11.47,3.38-22.94,6.77-34.41,10.15c-5.58,1.64-11.15,3.29-16.73,4.93c-2.52,0.74-8.96,2.27-6.67,6.28
			c0.8,1.4,2.96,0.14,2.16-1.26c-0.7-1.23,5.35-2.66,6.14-2.89c2.23-0.66,4.46-1.32,6.69-1.97c4.3-1.27,8.6-2.54,12.91-3.81
			c8.6-2.54,17.21-5.07,25.81-7.61c4.46-1.32,8.92-2.63,13.38-3.95c2.07-0.61,4.14-1.22,6.21-1.83c2.23-0.66,4.91-1.87,7.22-1.18
			c3.49,1.04,5.74,6.29,7.3,9.33c1.84,3.59,3.3,7.36,4.55,11.2c1.21,3.69,2.23,7.44,3.22,11.2c0.99,3.78,2.28,7.77,1.87,11.72
			c-0.45,4.28-3.41,6.77-7.09,8.51c-3.77,1.78-7.79,3.16-11.71,4.57c-7.99,2.88-16.12,5.4-24.34,7.56
			c-8.45,2.21-17.25,4.55-25.95,5.46c-4.98,0.52-8.47-1.48-11.05-5.65c-2.28-3.68-3.88-7.86-5.5-11.86
			c-3.62-8.88-6.59-18-8.98-27.28C282.07,140.68,279.66,141.34,280.06,142.9L280.06,142.9z"/>
		<path fill="#FFFFFF" d="M343.92,127.78c1.77,3.55,3.54,7.11,5.31,10.65c1.21,2.41,2.4,4.55,5.3,4.95
			c5.08,0.69,10.6-1.95,11.42-7.3c0.42-2.72-0.39-5.36-1.59-7.79c-1.09-2.21-2.58-5.33-4.81-6.63c-4.68-2.73-11.9,0.9-15.48,3.93
			c-1.23,1.04,0.55,2.8,1.77,1.77c2.68-2.26,10.06-6.22,13.22-2.88c2.59,2.74,5.17,7.82,4.35,11.65c-0.52,2.44-2.05,3.67-4.38,4.29
			c-2.27,0.61-5.06,1.17-6.55-1.12c-2.55-3.91-4.34-8.61-6.42-12.78C345.36,125.07,343.2,126.34,343.92,127.78L343.92,127.78z"/>
		<path fill="#FFFFFF" d="M289.54,145.69c6.62-1.26,14.36-1.68,20.27-5.12c1.39-0.81,0.13-2.97-1.26-2.16
			c-3.01,1.75-6.36,2.34-9.73,2.98c-3.31,0.63-6.63,1.26-9.94,1.89C287.29,143.58,287.96,145.99,289.54,145.69L289.54,145.69z"/>
		<path fill="#FFFFFF" d="M303.45,145.6c-4.37,0.9-8.74,1.8-13.1,2.69c-1.57,0.32-0.91,2.73,0.66,2.41c4.37-0.9,8.74-1.8,13.1-2.69
			C305.69,147.68,305.02,145.27,303.45,145.6L303.45,145.6z"/>
		<path fill="#FFFFFF" d="M292.91,155.63c3.08,0.02,6-0.64,8.81-1.9c1.46-0.66,0.19-2.82-1.26-2.16c-2.39,1.08-4.92,1.58-7.55,1.56
			C291.3,153.12,291.3,155.62,292.91,155.63L292.91,155.63z"/>
		<path fill="#FFFFFF" d="M339.07,142.63c-7.26,2.17-14.3,4.94-21.09,8.28c-1.44,0.71-0.18,2.87,1.26,2.16
			c6.61-3.25,13.44-5.92,20.5-8.02C341.27,144.58,340.62,142.17,339.07,142.63L339.07,142.63z"/>
		<path fill="#FFFFFF" d="M317.23,160.27c1.88,0.16,3.67-0.66,5.43-1.23c2.16-0.7,4.33-1.4,6.49-2.1c4.33-1.4,8.65-2.8,12.98-4.2
			c1.52-0.49,0.87-2.91-0.66-2.41c-4.02,1.3-8.03,2.6-12.05,3.9c-1.85,0.6-3.71,1.2-5.56,1.8c-2.02,0.65-4.49,1.93-6.62,1.74
			C315.63,157.63,315.64,160.13,317.23,160.27L317.23,160.27z"/>
		<path fill="#FFFFFF" d="M344.6,157.49c-8.91,2.47-17.81,4.95-26.72,7.42c-1.55,0.43-0.89,2.84,0.66,2.41
			c8.91-2.47,17.81-4.95,26.72-7.42C346.82,159.47,346.16,157.06,344.6,157.49L344.6,157.49z"/>
		<path fill="#FFFFFF" d="M140.45,71.51c-0.16,6.59,1.7,12.96,3.33,19.28c0.28,1.11,1.7,1.14,2.28,0.3
			c3.07-4.43,5.91-9.01,8.5-13.73c-0.65,0.08-1.31,0.17-1.96,0.25c4.9,5.79,10.35,11.05,16.32,15.74c0.91,0.72,2.47,0.09,2.09-1.22
			c-1.24-4.26-2.48-8.51-3.72-12.77c-0.54-1.86-1.66-4.27-0.58-6.11c0.99-1.68,3.1-2.67,4.65-3.78c5.87-4.22,10.79-9.52,14.65-15.62
			c0.59-0.94-0.39-2.11-1.41-1.84c-3.65,0.97-7.3,1.94-10.95,2.9c-1.52,0.4-3.66,1.39-5.24,1.39c-2.19-0.01-2.68-2.83-3.47-4.5
			c-3.14-6.69-6.29-13.39-9.43-20.08c-0.51-1.08-1.94-0.6-2.28,0.3c-2.55,6.58-4.68,13.31-6.33,20.17
			c-0.49,2.03-0.66,3.77-2.69,4.75c-1.48,0.71-3.51,0.9-5.11,1.31c-3.56,0.91-7.13,1.83-10.69,2.74c-1.12,0.29-1.13,1.69-0.3,2.28
			c4.32,3.1,8.64,6.21,12.95,9.31c1.31,0.94,2.56-1.23,1.26-2.16c-4.32-3.1-8.64-6.21-12.95-9.31c-0.1,0.76-0.2,1.52-0.3,2.28
			c4.03-1.03,8.06-2.07,12.09-3.1c2.89-0.74,6.27-0.91,7.35-4.13c1.25-3.72,1.88-7.72,3-11.49c1.21-4.06,2.6-8.05,4.13-12
			c-0.76,0.1-1.52,0.2-2.28,0.3c1.91,4.07,3.83,8.15,5.74,12.22c1.81,3.85,3.38,7.99,5.5,11.68c1.75,3.05,4.51,1.82,7.33,1.07
			c4.44-1.18,8.88-2.36,13.33-3.53c-0.47-0.61-0.94-1.22-1.41-1.84c-2.33,3.69-5.06,7.09-8.22,10.11c-2.95,2.82-6.49,4.78-9.5,7.46
			c-2.89,2.57-2.51,5.51-1.52,8.95c1.32,4.56,2.65,9.12,3.98,13.68c0.7-0.41,1.39-0.81,2.09-1.22c-5.96-4.69-11.41-9.95-16.32-15.74
			c-0.52-0.61-1.6-0.41-1.96,0.25c-2.59,4.73-5.43,9.3-8.5,13.73c0.76,0.1,1.52,0.2,2.28,0.3c-1.57-6.11-3.39-12.25-3.24-18.61
			C142.99,69.91,140.49,69.91,140.45,71.51L140.45,71.51z"/>
		<path fill="#FFFFFF" d="M208.73,84.91c-0.71-3.77-4.35-6.38-8.16-5.96c-4.02,0.45-7.12,3.95-7.74,7.84
			c-0.76,4.78,1.65,8.79,4.68,12.25c4.22,4.81,8.55,9.52,12.83,14.28c0.59,0.66,1.51,0.35,1.96-0.25
			c6.06-7.97,10.63-19.42,9.25-29.61c-0.53-3.88-3.58-6.38-7.52-5.86c-4.47,0.59-6.94,4.59-8.4,8.47c-0.57,1.51,1.85,2.16,2.41,0.66
			c1.25-3.34,3.98-7.69,8.22-6.57c4.13,1.09,3.01,7.53,2.6,10.71c-0.98,7.64-4.06,14.83-8.71,20.94c0.65-0.08,1.31-0.17,1.96-0.25
			c-2.67-2.97-5.33-5.93-8-8.9c-2.58-2.87-5.76-5.73-7.61-9.15c-1.84-3.39-1.96-7.96,1.2-10.63c3.06-2.59,7.84-1.5,8.63,2.69
			C206.62,87.15,209.03,86.48,208.73,84.91L208.73,84.91z"/>
		<path fill="#FFFFFF" d="M19.72,245.86c-8.56-3.05-16.98,6.14-12.27,14.28c5.24,9.05,16.95,6.34,24.57,2.6
			c1.44-0.71,0.18-2.87-1.26-2.16c-6.01,2.95-14.13,5.49-19.66,0.17c-6.05-5.82,0.22-15.24,7.95-12.49
			C20.57,248.81,21.23,246.4,19.72,245.86L19.72,245.86z"/>
		<path fill="#FFFFFF" d="M41.26,225.41c-5.71-4.23-13.98-3.44-19.24,1.17c-5.81,5.08-6.94,13.87-4.27,20.82
			c0.57,1.49,2.99,0.84,2.41-0.66c-2.29-5.97-1.64-13.3,3.13-17.93c4.46-4.31,11.72-4.93,16.71-1.24
			C41.29,228.53,42.54,226.36,41.26,225.41L41.26,225.41z"/>
		<path fill="#FFFFFF" d="M122.92,233.49c5.6-8.4,6.19-19.15,2.9-28.56c-3.41-9.75-10.67-17.37-19.9-21.88
			c-18.06-8.84-45.48-7.6-59.53,8.24c-8.5,9.58-9.66,23.14-6.6,35.14c0.4,1.56,2.81,0.9,2.41-0.66
			c-2.62-10.25-2.09-21.83,4.29-30.65c5.72-7.9,15.21-12.16,24.56-13.93c18.94-3.58,42.14,2.45,50.98,21.08
			c4.51,9.49,4.66,21.06-1.28,29.96C119.87,233.57,122.03,234.83,122.92,233.49L122.92,233.49z"/>
		<path fill="#FFFFFF" d="M143.44,247.2c4.4-5.93,2.95-14.03-3.03-18.27c-6.25-4.43-14.66-2.55-19.57,2.96
			c-1.07,1.2,0.7,2.97,1.77,1.77c4-4.49,10.66-6.36,15.97-2.96c5.33,3.41,6.43,10.22,2.7,15.24
			C140.32,247.23,142.49,248.48,143.44,247.2L143.44,247.2z"/>
		<path fill="#FFFFFF" d="M149.41,267.89c6.17,3.51,14.61,3.38,20.81-0.1c5.5-3.09,7.14-9.95,4.97-15.65
			c-4.68-12.24-26.22-17.7-34.01-5.81c-0.88,1.35,1.28,2.6,2.16,1.26c6.57-10.03,25.17-4.91,29.36,5.05
			c2.1,4.99,0.63,10.9-4.42,13.34c-5.41,2.62-12.36,2.74-17.61-0.25C149.27,264.93,148.01,267.09,149.41,267.89L149.41,267.89z"/>
		<path fill="#FFFFFF" d="M25.33,265.48c3.91,4.65,9.87,6.27,15.64,7.21c7.66,1.25,15.46,2.23,23.23,2.28
			c13.74,0.08,28.03-3.37,37.91-13.49c1.12-1.15-0.64-2.92-1.77-1.77c-9.42,9.65-23.05,12.83-36.14,12.76
			c-7.19-0.04-14.38-0.93-21.48-2.02c-5.7-0.87-11.73-2.12-15.62-6.74C26.06,262.48,24.3,264.25,25.33,265.48L25.33,265.48z"/>
		<path fill="#FFFFFF" d="M93.68,267.63c4.46,3.54,9.83,4.88,15.36,5.77c6.43,1.04,12.99,1.81,19.51,1.31
			c10.42-0.79,20.93-5.23,26.43-14.54c0.82-1.39-1.34-2.65-2.16-1.26c-5.22,8.82-15.36,12.79-25.21,13.36
			c-5.7,0.33-11.41-0.28-17.04-1.15c-5.3-0.82-10.82-1.85-15.13-5.26C94.2,264.88,92.42,266.63,93.68,267.63L93.68,267.63z"/>
		<path fill="#FFFFFF" d="M216.09,176.55c-6.07,7.84-12.14,15.67-18.22,23.51c-2.04,2.64-4.44,5.52-4.08,9.07
			c0.37,3.62,3.11,7.07,4.98,10.07c8.09,13.03,17.91,25.25,30.31,34.41c3.14,2.32,6.45,4.42,9.9,6.25
			c3.13,1.66,6.91,3.87,10.51,4.11c3.75,0.25,6.53-2.28,9.19-4.56c3.28-2.81,6.41-5.8,9.36-8.96c2.83-3.03,5.49-6.21,7.98-9.51
			c1.22-1.61,2.39-3.25,3.52-4.92c0.83-1.23,1.86-2.54,1.88-4.1c0.02-1.57-1.04-2.86-1.97-4.01c-1.44-1.79-2.96-3.51-4.53-5.19
			c-3.13-3.37-6.45-6.55-9.82-9.68c-7.81-7.26-15.75-14.38-23.74-21.44c-7.06-6.23-14.08-13.51-23.02-16.97
			c-0.76-0.29-1.6,0.45-1.58,1.21c0.13,4.53,1.47,8.79,2.85,13.07c1.4,4.37,2.8,8.74,4.2,13.1c1.5,4.68,3,9.36,4.5,14.04
			c1.21,3.78,2.1,8.04,4.22,11.44c4.09,6.58,13.78,6.43,20.61,6.86c9.22,0.59,18.45,0.08,27.57-1.35c1.58-0.25,0.91-2.66-0.66-2.41
			c-8.42,1.32-16.96,1.79-25.47,1.34c-4.16-0.22-8.42-0.51-12.52-1.34c-4.12-0.83-6.92-2.76-8.52-6.72
			c-3.07-7.56-5.11-15.7-7.6-23.47c-1.3-4.06-2.6-8.11-3.9-12.17c-1.3-4.07-2.63-8.1-2.76-12.41c-0.53,0.4-1.05,0.8-1.58,1.21
			c7.35,2.85,13.16,8.63,18.98,13.75c6.36,5.58,12.66,11.22,18.92,16.92c5.99,5.45,12.05,10.85,17.57,16.78
			c1.25,1.34,2.47,2.72,3.65,4.13c0.65,0.78,1.87,1.85,2.05,2.88c0.19,1.08-0.67,2.07-1.23,2.91c-2.1,3.14-4.37,6.18-6.79,9.09
			c-4.8,5.79-10.16,11.32-16.1,15.95c-2.03,1.58-4.05,2.41-6.64,1.75c-1.88-0.48-3.68-1.41-5.42-2.25c-3.05-1.48-6-3.17-8.82-5.03
			c-11.7-7.73-21.19-18.45-29.03-29.97c-2.16-3.17-4.21-6.43-6.16-9.73c-1.18-2-2.79-4.26-2.35-6.7c0.41-2.29,2.24-4.3,3.62-6.08
			c5.96-7.71,11.94-15.41,17.91-23.12C218.83,177.06,217.08,175.28,216.09,176.55L216.09,176.55z"/>
		<path fill="#FFFFFF" d="M228.35,213.54c-10.82-2.44-21.81-4.04-32.88-4.8c-1.61-0.11-1.6,2.39,0,2.5
			c10.85,0.74,21.6,2.32,32.21,4.71C229.25,216.3,229.92,213.89,228.35,213.54L228.35,213.54z"/>
		<path fill="#FFFFFF" d="M250.16,261.91c0.75-9.58,0.62-19.18-0.38-28.74c-0.17-1.58-2.67-1.6-2.5,0c1,9.56,1.13,19.16,0.38,28.74
			C247.54,263.51,250.04,263.5,250.16,261.91L250.16,261.91z"/>
		<path fill="#FFFFFF" d="M357.89,205.06c-4-1.68-8.24,1.63-8.34,5.79c-0.11,4.64,3.73,8.33,8.22,8.67
			c3.92,0.29,7.81-2.04,8.26-6.16c0.4-3.6-1.82-7.47-5.56-8.05c-1.57-0.24-2.25,2.17-0.66,2.41c2.22,0.34,3.6,2.19,3.77,4.4
			c0.21,2.71-1.81,4.63-4.42,4.9c-2.77,0.28-5.5-1.14-6.6-3.74c-1.36-3.2,0.93-7.38,4.68-5.81
			C358.7,208.09,359.35,205.67,357.89,205.06L357.89,205.06z"/>
		<path fill="#FFFFFF" d="M309.57,209.84c0.62,6.55,1.24,13.11,1.86,19.66c0.15,1.59,2.65,1.6,2.5,0
			c-0.62-6.55-1.24-13.11-1.86-19.66C311.92,208.25,309.42,208.24,309.57,209.84L309.57,209.84z"/>
		<path fill="#FFFFFF" d="M319.13,220.12c-5.72-1.02-11.48-1.66-17.28-1.91c-1.61-0.07-1.61,2.43,0,2.5
			c5.58,0.24,11.12,0.84,16.62,1.82C320.04,222.81,320.71,220.4,319.13,220.12L319.13,220.12z"/>
		<path fill="#FFFFFF" d="M103.68,49.95c-1.28,0.09-2.74,0-3.99,0.29c-1.59,0.38-2.5,2.15-2.9,3.65c-1.19,4.49,1.79,8.7,6.09,9.92
			c3.87,1.1,9.83-0.05,10.29-4.86c0.55-5.73-5.41-8.04-9.92-9.14c-1.56-0.38-2.23,2.03-0.66,2.41c3.14,0.77,7.66,1.83,8.07,5.72
			c0.46,4.39-6.06,4.32-8.69,2.81c-2.44-1.39-4.36-5.6-1.88-7.96c-0.1,0.09-0.52,0.07,0.08-0.09c0.38-0.1,0.85-0.06,1.25-0.09
			c0.75-0.06,1.51-0.11,2.26-0.17C105.28,52.33,105.29,49.83,103.68,49.95L103.68,49.95z"/>
		<path fill="#FFFFFF" d="M26.28,116.81c-4.25-6.81-9-13.28-14.23-19.37c-1.05-1.22-2.81,0.55-1.77,1.77
			c5.09,5.94,9.7,12.23,13.84,18.87C24.98,119.44,27.14,118.18,26.28,116.81L26.28,116.81z"/>
		<path fill="#FFFFFF" d="M26.7,102.79c-5.44,4.04-10.88,8.08-16.32,12.12c-1.28,0.95-0.03,3.12,1.26,2.16
			c5.44-4.04,10.88-8.08,16.32-12.12C29.24,104,27.99,101.83,26.7,102.79L26.7,102.79z"/>
	</g>
</g>
</svg>
